<svg height="464pt" viewBox="0 -108 464 464" width="464pt" xmlns="http://www.w3.org/2000/svg"><path d="m240 200h-208v-32h-16v-64h224zm0 0" fill="#195c85"/><path d="m368 104h-128v-96h112zm0 0" fill="#87cee9"/><path d="m432 168v32h-192v-96h208v64zm0 0" fill="#36afad"/><path d="m0 72h240v32h-240zm0 0" fill="#fdbd40"/><path d="m0 168h32v32h-32zm0 0" fill="#aabece"/><path d="m432 168h32v32h-32zm0 0" fill="#aabece"/><path d="m144 208c0 22.089844-17.910156 40-40 40s-40-17.910156-40-40 17.910156-40 40-40 40 17.910156 40 40zm0 0" fill="#5a6470"/><path d="m120 208c0 8.835938-7.164062 16-16 16s-16-7.164062-16-16 7.164062-16 16-16 16 7.164062 16 16zm0 0" fill="#aabece"/><path d="m416 208c0 22.089844-17.910156 40-40 40s-40-17.910156-40-40 17.910156-40 40-40 40 17.910156 40 40zm0 0" fill="#5a6470"/><path d="m392 208c0 8.835938-7.164062 16-16 16s-16-7.164062-16-16 7.164062-16 16-16 16 7.164062 16 16zm0 0" fill="#aabece"/><path d="m168 32h48v16h-48zm0 0" fill="#5a6470"/><path d="m184 0h32v16h-32zm0 0" fill="#5a6470"/><path d="m264 144h16v16h-16zm0 0" fill="#fdbd40"/></svg>